<svg id="ART" xmlns="http://www.w3.org/2000/svg" xmlns:xlink="http://www.w3.org/1999/xlink" viewBox="0 0 48 48"><defs><style>.cls-1{fill:url(#linear-gradient);}.cls-2{fill:url(#linear-gradient-2);}.cls-3{fill:url(#linear-gradient-3);}.cls-4{fill:url(#linear-gradient-4);}.cls-5{fill:url(#linear-gradient-5);}.cls-6{fill:url(#linear-gradient-6);}</style><linearGradient id="linear-gradient" x1="24" y1="53.5" x2="24" y2="-0.47" gradientUnits="userSpaceOnUse"><stop offset="0" stop-color="#27e9de"/><stop offset="0.52" stop-color="#03a4ec"/><stop offset="1" stop-color="#2547a8"/></linearGradient><linearGradient id="linear-gradient-2" x1="24" y1="49.6" x2="24" y2="-13.41" gradientUnits="userSpaceOnUse"><stop offset="0" stop-color="#273a9b"/><stop offset="0.56" stop-color="#202f65"/><stop offset="1" stop-color="#021e2f"/></linearGradient><linearGradient id="linear-gradient-3" x1="43.19" y1="30.56" x2="5.03" y2="-0.27" xlink:href="#linear-gradient"/><linearGradient id="linear-gradient-4" x1="16.38" y1="53.5" x2="16.38" y2="-0.47" xlink:href="#linear-gradient"/><linearGradient id="linear-gradient-5" x1="55.19" y1="30.56" x2="17.03" y2="-0.27" gradientTransform="matrix(1, 0, 0, -1, 3, 18)" xlink:href="#linear-gradient"/><linearGradient id="linear-gradient-6" x1="28.38" y1="53.5" x2="28.38" y2="-0.47" gradientTransform="matrix(-1, 0, 0, 1, 60, 0)" xlink:href="#linear-gradient"/></defs><title>startup, growth, hand, gesture, start, business</title><path class="cls-1" d="M26.36,26.52,25.5,14.31h-3l-.86,12.21a2.47,2.47,0,0,1-2,2.26c-3.48.61-5.37,2.19-5.37,4,0,2.38,4.37,4.31,9.75,4.31s9.75-1.93,9.75-4.31c0-1.85-1.89-3.42-5.37-4A2.47,2.47,0,0,1,26.36,26.52Z"/><path class="cls-2" d="M44.1,27a9.94,9.94,0,0,0-4.44,1l-4.88,2.44a9.59,9.59,0,0,1-4.29,1h-11l3.87-3.87a.89.89,0,0,0,0-1.25,2.18,2.18,0,0,0-2.07-.57l-6.91,1.73a10.9,10.9,0,0,0-6.23,4.24L3,39v6H13.5l.86-1.72a2.76,2.76,0,0,1,2-1.5l13.16-2a14.56,14.56,0,0,0,8.05-4.09l7.12-7.12A.89.89,0,0,0,44.1,27Z"/><path class="cls-3" d="M10,3h5.5A8.47,8.47,0,0,1,24,11.47V14a1,1,0,0,1-1,1h-5.5A8.47,8.47,0,0,1,9,6.53V4a1,1,0,0,1,1-1Z"/><path class="cls-4" d="M23,15a1,1,0,0,0,.79-.4c-2-1.67-4.11-3.39-6.36-5.12-2.84-2.19-5.62-4.2-8.24-6A1,1,0,0,0,9,4v2.5A8.47,8.47,0,0,0,17.47,15Z"/><path class="cls-5" d="M32.47,3H38a1,1,0,0,1,1,1v2.5A8.47,8.47,0,0,1,30.53,15H25a1,1,0,0,1-1-1v-2.5A8.47,8.47,0,0,1,32.47,3Z" transform="translate(63 18) rotate(180)"/><path class="cls-6" d="M25,15a1,1,0,0,1-.79-.4c2-1.67,4.11-3.39,6.36-5.12,2.84-2.19,5.62-4.2,8.24-6A1,1,0,0,1,39,4v2.5A8.47,8.47,0,0,1,30.53,15Z"/></svg>